<svg xmlns="http://www.w3.org/2000/svg" viewBox="0 0 93.94 93.94"><defs><style>.cls-1{fill:none;}.cls-2{fill:#f7f9fb;}</style></defs><g id="Layer_2" data-name="Layer 2"><g id="Layer_1-2" data-name="Layer 1"><polygon class="cls-1" points="93.94 93.94 0 93.94 0 0 93.94 0 93.94 93.94 93.94 93.94"/><path class="cls-2" d="M24.43,63.78h-1.9v0h-.12a3.11,3.11,0,0,1-3.11-3.13l.09-29.83a3.14,3.14,0,0,1,3.13-3.12h0l49,.17A3.13,3.13,0,0,1,74.65,31l-.1,29.83a3.13,3.13,0,0,1-3.13,3.11h0l-47-.15v0Zm47,2.4a5.4,5.4,0,0,0,5.4-5.37L76.92,31a5.41,5.41,0,0,0-5.38-5.42l-49-.16h0a5.41,5.41,0,0,0-5.4,5.38L17,60.61A5.39,5.39,0,0,0,22.4,66l49,.16Z"/><path class="cls-2" d="M73.1,26.75H20.67l-2,2.55V41.64L18.12,62l3.57,2.81H72.93l2.38-2.22.6-33.19ZM26.33,48.38H43.94a1.14,1.14,0,0,1,0,2.27H26.33a1.14,1.14,0,1,1,0-2.27Zm25.84,8.8H26.33a1.14,1.14,0,1,1,0-2.27H52.17a1.14,1.14,0,1,1,0,2.27Zm16.29-12.3a.5.5,0,0,1-.5.5H58a.5.5,0,0,1-.5-.5V31.61a.5.5,0,0,1,.5-.5H68a.5.5,0,0,1,.5.5Z"/></g></g></svg>