<svg xmlns="http://www.w3.org/2000/svg" viewBox="0 0 29.32 37.72"><defs><style>.cls-1{fill:#fafdff;}</style></defs><g id="Layer_2" data-name="Layer 2"><g id="Layer_1-2" data-name="Layer 1"><path class="cls-1" d="M14.66,2.62a12.05,12.05,0,0,0-12,12c0,5.18,8,15.2,12,19.79,4.08-4.59,12-14.61,12-19.79a12.05,12.05,0,0,0-12-12Zm0,35.1h0a1.31,1.31,0,0,1-1-.42C13.14,36.7,0,22.46,0,14.66a14.66,14.66,0,0,1,29.32,0c0,7.8-13.14,22-13.7,22.64a1.29,1.29,0,0,1-1,.42Z"/><path class="cls-1" d="M14.66,10a4,4,0,1,0,4,4,4,4,0,0,0-4-4Zm0,10.58a6.6,6.6,0,1,1,6.6-6.6,6.61,6.61,0,0,1-6.6,6.6Z"/></g></g></svg>