<svg xmlns="http://www.w3.org/2000/svg" viewBox="0 0 512.41 351.15"><defs><style>.cls-1{fill:#d2d3d4;}.cls-2{fill:#bcbec0;}.cls-3{fill:#9a9c9f;}.cls-4{fill:#808285;}.cls-5{fill:#939598;}.cls-6{fill:#4b4d4f;}.cls-7{fill:#55575b;}.cls-8{fill:#fff;}.cls-9{fill:#f7931e;}.cls-10{fill:#bc6d29;}.cls-11{fill:#424142;}.cls-12{fill:#f2a659;}.cls-13{fill:#e6e7e8;}.cls-14{fill:gray;}.cls-15{fill:#9f9fa0;}.cls-16{fill:#f9ad94;}.cls-17{fill:#ec2027;}.cls-18{fill:#941a1d;}.cls-19{fill:#b01f24;}</style></defs><g id="Layer_2" data-name="Layer 2"><g id="Layer_1-2" data-name="Layer 1"><path class="cls-1" d="M512.41,339.51c0,6.43-114.71,11.64-256.21,11.64S0,345.94,0,339.51s114.7-11.63,256.2-11.63,256.21,5.21,256.21,11.63"/><path class="cls-2" d="M92.49,330.56h0m.23,0h0m.24,0h0m.34,0h0m.29,0h0m.26,0h0m.36,0h0m.28,0h0m.71,0h0m.18,0,.49,0-.49,0m.59,0h0m.28,0h0m.3,0h0m.27,0,1.79-.06-1.79.06m317.73,0-.37,0,.37,0m-315.9,0c37.28-1.32,82.83-2.19,132.53-2.41-49.71.22-95.25,1.09-132.53,2.41m314.71,0h0m-.25,0h0m-.58,0h0m-.28,0-1.83-.07,1.83.07m-1.84-.07c-36.64-1.25-81-2.07-129.18-2.29,48.23.22,92.54,1,129.18,2.29m-179.17-2.29h0m49.91,0h0m-47.46,0h0m45,0h0m-.36,0h0m-42.94,0h0m.8,0h0m40,0h0m-39.25,0h0m38.52,0h0m-37.64,0h0m36.76,0h0m-36.46,0h0m36.16,0h0m-35.45,0h0m34.73,0h0m-34.45,0h0m34.17,0h0m-33.91,0h0m33.66,0h0m-32.71,0h0m31.75,0h0m-31.37,0h0m31,0h0m-30.59,0h0m30.15,0h0m-29.39,0h0m28.67,0h0m-25.46,0h0m22.24,0h0m-21,0h0m19.79,0h0m-19.23,0h0m18.69,0h0m-18.37,0h0m18,0h0m-17.6,0h0m17.16,0h0m-15.93,0h0m14.7,0h0m-13.49,0h0m12.28,0h0m-11.89,0h0m11.5,0h0m-10,0h0m8.46,0h0m-7.82,0h0m7.18,0h0m-6.9,0h0m6.62,0h0m-5.22,0h0m3.82,0h0m-3.55,0h0m3.29,0h0"/><path class="cls-3" d="M256.2,342c-108.58,0-201.38-2.79-238.69-6.73,7.66-.89,17.66-1.73,29.64-2.49a61,61,0,0,0,13.12,1.43,60.12,60.12,0,0,0,19.22-3.13q6.3-.27,13-.53h2.1l.61,0h.18l.49,0h.95l1.79-.06h0c37.28-1.32,82.82-2.19,132.53-2.41h50.05c48.23.22,92.54,1,129.18,2.29h0l1.83.07h1.11l.82,0,.37,0c35.59,1.27,63.57,3,80.34,4.91-37.3,3.94-130.1,6.73-238.69,6.73"/><path d="M60.27,314a40,40,0,1,1,40-40,40,40,0,0,1-40,40m0-100.32a60.28,60.28,0,1,0,60.28,60.28,60.28,60.28,0,0,0-60.28-60.28"/><path class="cls-4" d="M60.27,311.35a37.41,37.41,0,1,1,37.41-37.41,37.41,37.41,0,0,1-37.41,37.41m0-79a41.62,41.62,0,1,0,41.62,41.62,41.62,41.62,0,0,0-41.62-41.62"/><path class="cls-4" d="M81.54,273.94a21.27,21.27,0,1,1-21.27-21.26,21.27,21.27,0,0,1,21.27,21.26"/><path d="M77.27,273.94a17,17,0,1,1-17-17,17,17,0,0,1,17,17"/><path d="M435.46,314a40,40,0,1,1,40-40,40,40,0,0,1-40,40Zm0-100.32a60.28,60.28,0,1,0,60.28,60.28,60.28,60.28,0,0,0-60.28-60.28Z"/><path class="cls-4" d="M435.46,311.35a37.41,37.41,0,1,1,37.41-37.41,37.41,37.41,0,0,1-37.41,37.41Zm0-79a41.62,41.62,0,1,0,41.63,41.62,41.62,41.62,0,0,0-41.63-41.62Z"/><path class="cls-4" d="M456.73,273.94a21.27,21.27,0,1,1-21.27-21.26,21.27,21.27,0,0,1,21.27,21.26Z"/><path d="M452.47,273.94a17,17,0,1,1-17-17,17,17,0,0,1,17,17Z"/><path class="cls-5" d="M60.27,280.1A6.16,6.16,0,0,1,55,270.7L178.3,71.81a6.16,6.16,0,0,1,10.47,6.48L65.51,277.18a6.17,6.17,0,0,1-5.24,2.92"/><polyline class="cls-5" points="76.23 259.88 76.23 259.88 77.29 258.17 77.29 258.17 76.23 259.88"/><polyline class="cls-6" points="73.85 263.72 73.85 263.72 76.23 259.88 76.23 259.88 73.85 263.72"/><polyline points="72.82 265.39 73.85 263.72 73.85 263.72 72.82 265.39 72.82 265.39"/><path class="cls-7" d="M72.35,265.4c-1.78,0-8.15-.36-10.72-5.33l3.88-6.27a68.08,68.08,0,0,0,11.78,4.37l-1.06,1.71-2.38,3.84-1,1.67h-.47"/><path d="M208.63,0h-1.84A15.82,15.82,0,0,0,191,15.82a10.42,10.42,0,0,1-3.05,7.36L166.37,44.73l1.89,1.9L189.9,25a10.42,10.42,0,0,1,7.36-3h7.87A12.71,12.71,0,0,0,217.85,9.22,9.22,9.22,0,0,0,208.63,0Z"/><path class="cls-8" d="M194.63,14a13.08,13.08,0,0,1,3.6-9.07,10.8,10.8,0,0,1,4.29-2.69,9.54,9.54,0,0,1,4.93-.33,15,15,0,0,0-8.06,4.16A24.37,24.37,0,0,0,194.63,14Z"/><path class="cls-9" d="M29.27,212a69.28,69.28,0,0,0,97.12,41.23A69.28,69.28,0,0,0,29.27,212"/><path class="cls-10" d="M105.76,259.75A142.16,142.16,0,0,0,53.88,205c2.11-.19,4.24-.32,6.39-.32a70.09,70.09,0,0,1,8.11.47l25.84,21.67a99.77,99.77,0,0,1,24.14,29.82,69.3,69.3,0,0,1-12.6,3.12"/><path d="M512.41,264.05a11,11,0,0,1-10.63-8.21,68.77,68.77,0,0,0-99.65-42l25.79-18.6V189.9A109.13,109.13,0,0,1,455.13,186a88.42,88.42,0,0,1,57.28,78"/><path d="M306.51,158.94C290.9,236.54,247,241.47,247,241.47L199,247.21a28.44,28.44,0,0,1-29.72-17.55l-7-17.27a65.89,65.89,0,0,1,2.82-55.57l31.74-60a46.83,46.83,0,0,0,4.66-15.23A35.78,35.78,0,0,0,166,41.32h-7.76l9.2,37.06v8.05l-61.07,61.44,44.38,127.27H288.38V252.31h60.38l79.16-57.09v-69L306.51,158.94"/><path class="cls-11" d="M475.5,138l-179.95,31.4A11.52,11.52,0,0,1,282,158a30.31,30.31,0,0,1,29.65-30.3l71.68-1.55,62.83-12.32A24.58,24.58,0,0,1,475.5,138"/><path class="cls-4" d="M288.38,166.12c0-17.45,14.39-31.71,32.39-32.09l78.31-1.64,50.1-9.52c5.86-1.12,4.61-10-1.31-9.29-.56.07-1.11.16-1.67.27l-62.83,12.32-71.68,1.55A30.31,30.31,0,0,0,282,158a11.49,11.49,0,0,0,6.58,10.4,11.57,11.57,0,0,1-.24-2.3Z"/><path d="M448.22,255.48v-.21h-.44a24.09,24.09,0,0,0-9.34-2.52,45.54,45.54,0,0,0-44.2-34.6H337a16,16,0,0,0-16.05,16,21.07,21.07,0,0,1-21.07,21.08H269a24,24,0,0,0-10.86-2.59H172.72a24,24,0,0,0-10.86,2.59h-1.74a4.65,4.65,0,0,0-4.65,4.64h0a24.19,24.19,0,0,0,17.25,41.15h85.42a24,24,0,0,0,14-4.48h52.55a24,24,0,0,0,14,4.48h98.25a24.19,24.19,0,0,0,11.3-45.59"/><path class="cls-4" d="M393.43,253.64h13.66c13.85,0,41.72,3.34,41.72,7.45H395.33a19.72,19.72,0,0,0-19.72,19.72c0,.36,0,.71.06,1.07a19.63,19.63,0,0,1-2-8.52h0a19.72,19.72,0,0,1,19.72-19.72Z"/><path class="cls-9" d="M189.64,84.23H164.77C84.94,121.41,52.7,192,52.7,192l41.52,34.81a98.27,98.27,0,0,1,35.45,76.37s67.42,14.85,198-30.72a26.68,26.68,0,0,0,13.42-10.53C391.66,185.18,442.54,186,461.23,186c60.31,0,22.21-10.1,28-20.76a53.5,53.5,0,0,0,6.5-25.55v-1c0-16.5-19.3-17.76-29.24-15.64-43,9.17-126.22,27.53-164.88,96.22a70.22,70.22,0,0,1-48.88,35.05c-22.75,4-53,7.51-81.84,5.36a24.69,24.69,0,0,1-22-17.93l-21.56-76.88a24.74,24.74,0,0,1,6.23-24.07l56-56.53"/><path class="cls-9" d="M166.55,65.46v-.28a13.07,13.07,0,0,1,13.07-13.07,49.87,49.87,0,0,0-12.37-11.72l-14.79-9.8L139.62,46.93a48,48,0,0,0-10.25,29.79A5.44,5.44,0,0,0,134.85,82H189.6v-.11a10.64,10.64,0,0,0-10.74-10.44h-6.28a6,6,0,0,1-6-6"/><path class="cls-2" d="M206.23,302.39c3.06-.4,6.22-.83,9.47-1.32h0c-3.25.49-6.41.92-9.47,1.32"/><path d="M215.7,301.07h0a557.9,557.9,0,0,0,64.47-13.8,558.34,558.34,0,0,1-64.47,13.8m64.61-13.84h0"/><path class="cls-10" d="M160.94,305.49c-4.87,0-9.18-.13-12.93-.33a10,10,0,0,1,9.4-10c42.7-2.52,103.35-10.26,181.39-30.33a26.45,26.45,0,0,1-11.17,7.61c-16.82,5.87-32.6,10.74-47.31,14.76h0l-.14,0a557.9,557.9,0,0,1-64.47,13.8c-3.25.49-6.41.92-9.47,1.32a358.35,358.35,0,0,1-45.29,3.1"/><path class="cls-10" d="M373.81,192.4a2.06,2.06,0,0,1-1.42-3.51c39.36-39.06,94.95-50,123.14-53.09a18.49,18.49,0,0,1,.21,2.75h0a18.49,18.49,0,0,0-.21-2.75c-2.95.32-6.2.73-9.7,1.25h0a17.16,17.16,0,0,0-14.63,16.36c0,.2,0,.4,0,.59h0v0h0v0h0v0h0a5.11,5.11,0,0,0,5.11,5h.29a249.09,249.09,0,0,0-101.72,33,2.11,2.11,0,0,1-1.07.31m118.53-34.34h0"/><polyline class="cls-8" points="56.11 194.86 55.11 194.02 56.11 194.86 56.11 194.86"/><path class="cls-12" d="M56.11,194.86l-1-.84-2.41-2s25.22-55.14,86.21-93.63h14.62c-54.92,34.73-87.36,80.74-97.42,96.49"/><path class="cls-12" d="M153.53,98.37H138.91a231.83,231.83,0,0,1,25.86-14.14h13.82a287,287,0,0,0-25.06,14.14"/><path class="cls-8" d="M129.38,76.89h0m0,0s0,0,0,0,0,0,0,0m0,0v0m0,0v0m0,0h0v0h0"/><path class="cls-12" d="M131.67,81a5.3,5.3,0,0,1-2.29-4.13h0v0s0,0,0,0v-.11h0V76.6a48.06,48.06,0,0,1,10.25-29.67l12.84-16.34L158,34.23,145.49,48.06a52.64,52.64,0,0,0-13.82,33"/><path class="cls-4" d="M212.12,68.87H176.6a5.73,5.73,0,0,1,0-11.46h35.52a5.73,5.73,0,0,1,0,11.46Z"/><path class="cls-11" d="M170.88,63.08v.06a5.72,5.72,0,0,0,5.72,5.73h35.52a5.73,5.73,0,0,0,5.73-5.73v-.06Z"/><path class="cls-11" d="M217.85,63.14a5.73,5.73,0,1,1-5.73-5.73,5.73,5.73,0,0,1,5.73,5.73Z"/><path class="cls-4" d="M215.7,63.14a3.58,3.58,0,1,1-3.58-3.58,3.58,3.58,0,0,1,3.58,3.58Z"/><path class="cls-13" d="M133.37,57.41a48,48,0,0,0-3.91,17.08l16.7-6.31a11.51,11.51,0,0,0,7.45-10.77Z"/><path class="cls-4" d="M133.37,57.41c-.26.6-.46,1.22-.69,1.83h17.78a13,13,0,0,1-3,8.34,11.51,11.51,0,0,0,6.16-10.17Z"/><path class="cls-14" d="M169.48,259.49a24.66,24.66,0,0,1-10-3.6l-.07-.07a24.71,24.71,0,0,0,10,3.67m67.32-2.71h0m.23,0h0m.24,0h0m.23,0h0m.24,0h0m.23,0,.16,0-.16,0m.23,0,.17,0-.17,0m.23,0,.46-.06-.46.06m.46-.06c4.84-.7,9.47-1.44,13.82-2.2-4.35.76-9,1.5-13.82,2.2"/><path class="cls-14" d="M259.57,252.72h0a70.64,70.64,0,0,0,42.06-33.51c15.94-28.31,39.46-48.07,64.61-62.16h0c-25.15,14.09-48.68,33.86-64.62,62.18a70.56,70.56,0,0,1-42.05,33.49"/><path class="cls-15" d="M366.24,157.05c35.85-20.09,75-28.65,100.26-34l1.17-.23-1.17.23c-25.25,5.39-64.41,14-100.26,34h0"/><path class="cls-14" d="M252.72,254.28a68.65,68.65,0,0,0,6.85-1.56h0c-2.24.63-4.51,1.15-6.83,1.56h0"/><path class="cls-12" d="M221,266.76c-25.76,0-52.63-2.75-61.5-10.87a24.66,24.66,0,0,0,10,3.6c.46.07.94.12,1.42.15,6,.45,12.16.65,18.24.65a352.8,352.8,0,0,0,47.66-3.51h0l.22,0h0l.21,0h0l.21,0h.07l.17,0h.08l.15,0,.16,0h.07l.17,0h.06l.46-.06h0c4.84-.7,9.47-1.44,13.82-2.2h0c2.32-.41,4.59-.93,6.83-1.56a70.56,70.56,0,0,0,42.05-33.49c15.94-28.32,39.47-48.09,64.62-62.18,35.85-20.09,75-28.65,100.26-34l1.17-.23a38.46,38.46,0,0,1,6.52-.54,35.35,35.35,0,0,1,7.7.81c-50.1,11.93-123.7,36.08-160.64,101.67a77.82,77.82,0,0,1-54.2,38.86c-10.38,1.82-27.93,3.18-46,3.18"/><path class="cls-8" d="M29.42,211.93h0"/><path class="cls-12" d="M31.29,217.59c-.75-1.83-1.43-3.69-2-5.59h0l.15-.07h0A68.93,68.93,0,0,1,51,205.32a8.29,8.29,0,0,1-6.56,8.13,68.7,68.7,0,0,0-13.13,4.14"/><path class="cls-8" d="M490.83,172.89h0c-1.65-2.24-2.84-4.64-1.86-7.08h0c-1,2.44.21,4.84,1.86,7.08"/><path class="cls-16" d="M405.49,187.3c25.26-17.32,70-20.82,83.48-21.49-1,2.44.21,4.84,1.86,7.08h-1.58c-13.31,0-49.17,1.35-83.76,14.42"/><path class="cls-17" d="M495.53,135.8c-2.95.32-6.2.73-9.7,1.25A17.16,17.16,0,0,0,471.19,154a5.11,5.11,0,0,0,5.62,5.07c5.75-.56,11-.87,15.65-1a53.32,53.32,0,0,0,3.28-18.37v-1a19.78,19.78,0,0,0-.21-2.85"/><path class="cls-18" d="M471.2,154.12h0m0,0h0m0,0h0m0-.64a17.16,17.16,0,0,1,14.63-16.36,17.16,17.16,0,0,0-14.63,16.36"/><path class="cls-19" d="M473.34,158.12a5.06,5.06,0,0,1-2.14-4h0v0h0v0h0v0h0c0-.19,0-.39,0-.59a17.16,17.16,0,0,1,14.63-16.36h0c3.5-.52,6.75-.93,9.7-1.25a19.78,19.78,0,0,1,.21,2.85v1h0c0,.7-.07,1.4-.09,2.1-2.27.27-4.66.57-7.2.93a17.45,17.45,0,0,0-15.11,15.4"/></g></g></svg>