<svg xmlns="http://www.w3.org/2000/svg" viewBox="0 0 93.94 93.94"><defs><style>.cls-1{fill:none;}.cls-2{fill:#f7f9fb;}</style></defs><g id="Layer_2" data-name="Layer 2"><g id="Layer_1-2" data-name="Layer 1"><polygon class="cls-1" points="93.94 93.94 0 93.94 0 0 93.94 0 93.94 93.94 93.94 93.94"/><polygon class="cls-2" points="51.57 39.53 48.18 59.08 38.12 59.08 43.85 39.53 51.57 39.53 51.57 39.53"/><polygon class="cls-2" points="62.86 25.33 62.86 28.25 34.52 28.25 34.52 25.33 62.86 25.33 62.86 25.33"/><path class="cls-2" d="M48.77,37A2.37,2.37,0,0,1,46.4,34.7v-.06a2.37,2.37,0,0,1,4.74,0,2.48,2.48,0,0,1-.29,1.15A2.4,2.4,0,0,1,48.77,37ZM34.52,30.32V43.66h7.1l1.1-4.12a.87.87,0,0,1,.82-.92H53.86a.88.88,0,0,1,.83.92l1.23,4.12h6.94V30.32Z"/><path class="cls-2" d="M42.45,73.93a6.19,6.19,0,1,1,6.19-6.18,6.2,6.2,0,0,1-6.19,6.18ZM34.52,60V73.74a2.14,2.14,0,0,0,2.14,2.14H48.28a2.12,2.12,0,0,0,2.12-2.12V60Z"/><path class="cls-2" d="M42.44,71.64a3.89,3.89,0,0,1-3.81-3.16H37a5.54,5.54,0,0,0,11,0H46.25a3.89,3.89,0,0,1-3.81,3.16Zm0-7.78A3.87,3.87,0,0,1,46.25,67h1.68a5.54,5.54,0,0,0-11,0h1.68a3.88,3.88,0,0,1,3.81-3.15Z"/><path class="cls-2" d="M37.39,15.71H60.68a2.18,2.18,0,0,1,2.18,2.18V22.5a.77.77,0,0,1-.77.77H35.28a.77.77,0,0,1-.77-.77V18.59A2.88,2.88,0,0,1,37.39,15.71Z"/></g></g></svg>