<svg xmlns="http://www.w3.org/2000/svg" viewBox="0 0 93.94 93.94"><defs><style>.cls-1{fill:none;}.cls-2{fill:#f7f9fb;}</style></defs><g id="Layer_2" data-name="Layer 2"><g id="Layer_1-2" data-name="Layer 1"><polygon class="cls-1" points="93.94 93.94 0 93.94 0 0 93.94 0 93.94 93.94 93.94 93.94"/><path class="cls-2" d="M57.57,53.72c-1.4,2.81-5.56,4.85-10.47,4.85-5.08,0-9.35-2.19-10.6-5.14l2.27-.76V48.6A12.86,12.86,0,0,0,47.32,52a12.58,12.58,0,0,0,8.1-3v3.87l2.15.87Z"/><path class="cls-2" d="M62,34.65c-.29,1.92-1.17,3.23-1.86,3.48l-.46.18-.12.47a16.84,16.84,0,0,1-4.77,8.27,10.64,10.64,0,0,1-15.35-.39,17,17,0,0,1-4.34-7.87L35,38.3l-.48-.16-.11-.06a5,5,0,0,1-1.73-3.44,6.85,6.85,0,0,1,.12-2.89l1.2-.23.1-.05a5.34,5.34,0,0,1,.53-.12l.66,1,.11.22.1.08.26.41A3.46,3.46,0,0,0,39,35h.67l.41-.23a33,33,0,0,1,7.21-.51,33.41,33.41,0,0,1,7.28.53L55,35h.66a3.43,3.43,0,0,0,3.25-1.8l.36-.55,0,0,.11-.17.69-1,.51.12.1,0,1.23.34a7.17,7.17,0,0,1,.1,2.8Zm.63-3.56L61,30.62l-.09,0a8.55,8.55,0,0,0-1.25-.27l-1,1.58,0,.08,0,0-.16.25c-.08.13-.15.26-.23.37A2.52,2.52,0,0,1,55.62,34H55.2l-.2-.11c-.41-.22-3.09-.63-7.68-.63-4.43,0-7.18.38-7.66.63l-.2.11H39a2.53,2.53,0,0,1-2.51-1.45l-.2-.31L36.17,32l-.05,0,0-.1-1-1.57a11.28,11.28,0,0,0-1.26.26l-.09,0-1.61.32a7.22,7.22,0,0,0-.36,3.84,5.8,5.8,0,0,0,2.16,4.09,1.2,1.2,0,0,0,.32.16,17.92,17.92,0,0,0,4.57,8.29,12.05,12.05,0,0,0,8.55,3.74,11.87,11.87,0,0,0,8.1-3.32,17.59,17.59,0,0,0,5-8.73c1.13-.42,2.14-2.1,2.47-4.23a7.5,7.5,0,0,0-.3-3.69Z"/><polygon class="cls-2" points="26.18 72.95 26.37 72.95 34.2 72.95 34.2 66.08 60.17 66.08 60.17 72.95 68.06 72.95 68.06 80.19 26.14 80.19 26.14 72.95 26.18 72.95 26.18 72.95"/><path class="cls-2" d="M30.19,71.05a2,2,0,1,1,2-2,2,2,0,0,1-2,2Zm-3.07-16.2V72h6.14V53l-6.14,1.9Z"/><path class="cls-2" d="M64.18,71.05a2,2,0,1,1,2-2,2,2,0,0,1-2,2ZM61.11,53V72h6.14V54.85L61.11,53Z"/><path class="cls-2" d="M61.63,24.32V30c0-.26-.82-.49-2.26-.69l-.21,0-1.38,2.1,0,0c-.87,1.34-1,1.66-2.14,1.66h-.18c-.79-.42-4.13-.74-8.12-.74s-7.29.31-8.1.74H39c-1.17,0-1.27-.32-2.13-1.66,0,0,0,0,0,0l-1.4-2.1-.2,0c-1.43.2-2.26.43-2.26.69V24.32c0-6.27,6.4-10.52,14.3-10.52s14.31,4.25,14.31,10.52Z"/></g></g></svg>