<svg xmlns="http://www.w3.org/2000/svg" viewBox="0 0 93.94 93.94"><defs><style>.cls-1{fill:none;}.cls-2{fill:#f7f9fb;}</style></defs><g id="Layer_2" data-name="Layer 2"><g id="Layer_1-2" data-name="Layer 1"><polygon class="cls-1" points="93.94 93.94 0 93.94 0 0 93.94 0 93.94 93.94 93.94 93.94"/><path class="cls-2" d="M21.75,20.53l16.31.5L22.77,35.77l-1-15.24ZM38.23,47.61H55.65V59.76H38.23V47.61Zm-12.46,2V74.36a2.13,2.13,0,0,0,1.12,1.81,3.43,3.43,0,0,0,1.69.43H65.36a3.4,3.4,0,0,0,1.69-.43,2.16,2.16,0,0,0,1.13-1.81V49.57L47,30.28,25.77,49.57Zm50.65-6.83L49.65,18.38a4,4,0,0,0-5.35,0L17.52,42.74a4,4,0,0,0-.25,5.59,4.06,4.06,0,0,0,2.94,1.29,4,4,0,0,0,2.68-1L47,26.65,71.05,48.58a4,4,0,0,0,5.61-.25,3.94,3.94,0,0,0-.24-5.59Z"/></g></g></svg>