<svg xmlns="http://www.w3.org/2000/svg" viewBox="0 0 524.05 277.57"><defs><style>.cls-1{fill:#d2d3d4;}.cls-2{fill:#608142;}.cls-3{fill:#adc459;}.cls-4{fill:#e3ded2;}.cls-5{fill:#c3bfb6;}.cls-6{fill:#424142;}.cls-7{fill:#5f8197;}.cls-8{fill:#fff;}.cls-9{fill:#8aacbf;}.cls-10{fill:#a66749;}.cls-11{fill:#b98870;}.cls-12{fill:#b8b5ae;}.cls-13{fill:#f7931e;}.cls-14{fill:#557285;}.cls-15{fill:#d7d9d7;}.cls-16{fill:#7a97a6;}.cls-17{fill:#648091;}.cls-18{fill:#85a1ae;}.cls-19{fill:#905a40;}.cls-20{fill:#b01f24;}.cls-21{fill:#bc6d29;}.cls-22{fill:#e9e4dc;}.cls-23{fill:#6f91a6;}.cls-24{fill:#96b8c8;}.cls-25{fill:#606061;}.cls-26{fill:#7e7d77;}</style></defs><g id="Layer_2" data-name="Layer 2"><g id="Layer_1-2" data-name="Layer 1"><path class="cls-1" d="M262,277.57c-144.71,0-262-8.8-262-19.65,0-1.53,2.33-3,6.72-4.44,0,.47,0,.94,0,1.42H31.35v8.17H195.46v-12h240.1v-7.89c54.26,3.61,88.49,8.87,88.49,14.73,0,10.85-117.32,19.65-262,19.65"/><path class="cls-2" d="M75.41,193.5A61.4,61.4,0,0,0,14,254.9h122.8a61.4,61.4,0,0,0-61.4-61.4"/><path class="cls-3" d="M40,221.63A33.28,33.28,0,0,0,6.69,254.9H73.23A33.27,33.27,0,0,0,40,221.63"/><path class="cls-3" d="M75.38,234.66A20.24,20.24,0,0,0,55.13,254.9H95.62a20.24,20.24,0,0,0-20.24-20.24Z"/><polyline class="cls-4" points="402.36 55.64 402.36 145 357.58 145 357.58 55.64 402.36 55.64"/><polyline class="cls-5" points="357.58 70.32 357.58 55.64 402.36 55.64 402.36 67.71 357.58 70.32"/><polygon class="cls-6" points="404.56 61.5 355.39 61.5 355.39 49.77 404.56 49.77 404.56 61.5 404.56 61.5"/><path class="cls-2" d="M246.26,45.94A45.94,45.94,0,1,1,200.32,0a45.94,45.94,0,0,1,45.94,45.94Z"/><path class="cls-2" d="M284.71,78.26a32.33,32.33,0,1,1-32.33-32.32,32.32,32.32,0,0,1,32.33,32.32"/><path class="cls-3" d="M234.72,91.88A86.69,86.69,0,1,1,148,5.2a86.68,86.68,0,0,1,86.69,86.68"/><path class="cls-3" d="M269.1,87.7a34.39,34.39,0,1,1-34.38-34.39A34.39,34.39,0,0,1,269.1,87.7"/><polyline class="cls-4" points="133.21 106.69 133.21 251.08 435.56 251.08 435.56 106.69 133.21 106.69"/><polyline class="cls-7" points="403.32 138.18 403.32 219.59 340.95 219.59 340.95 138.18 403.32 138.18"/><path class="cls-8" d="M407.29,134.21H337v89.35h70.31V134.21m-4,4v81.41H341V138.18h62.37"/><polyline class="cls-9" points="398.81 138.18 340.96 196.06 340.96 161.91 364.73 138.18 398.81 138.18"/><polyline class="cls-9" points="403.32 142.07 403.32 158.28 342.01 219.59 340.95 219.59 340.95 204.43 403.32 142.07"/><polyline class="cls-7" points="327 138.18 327 219.59 264.63 219.59 264.63 138.18 327 138.18"/><path class="cls-8" d="M331,134.21H260.66v89.35H331V134.21m-4,4v81.41H264.63V138.18H327"/><polyline class="cls-9" points="322.49 138.18 264.64 196.06 264.64 161.91 288.41 138.18 322.49 138.18"/><polyline class="cls-9" points="327 142.07 327 158.28 265.69 219.59 264.63 219.59 264.63 204.43 327 142.07"/><polyline class="cls-10" points="248.41 158.77 248.41 233.35 209.01 233.35 209.01 158.77 248.41 158.77"/><path class="cls-8" d="M252.38,154.8H205v82.52h47.34V154.8m-4,4v74.58H209V158.77h39.4"/><polyline class="cls-11" points="246.49 160.69 246.49 233.35 209.01 233.35 209.01 160.69 246.49 160.69"/><polyline class="cls-12" points="240.72 150.41 214.77 150.41 214.77 147.08 240.72 147.08 240.72 150.41"/><path class="cls-13" d="M435.56,251.08H195.46V131.36l-34.11-16.49H435.56V251.08M205,154.8v82.52h47.34V154.8H205M337,134.21v89.35h70.31V134.21H337m-76.32,0v89.35H331V134.21H260.66m-45.89,12.87v3.33h26v-3.33h-26"/><path class="cls-14" d="M403.32,219.59H383v-41l20.34-20.34v61.31m-62.37,0h0V138.18h62.37v3.89L383,162.4V154l15.83-15.84H364.73l-8.91,8.9H341v72.51"/><path class="cls-15" d="M407.29,223.56H337V134.21h70.31v89.35m-24.31-4h20.34V138.18H341v81.41h42"/><polyline class="cls-16" points="382.98 154.02 382.98 147.08 355.82 147.08 364.73 138.18 398.81 138.18 382.98 154.02"/><polyline class="cls-16" points="382.98 178.62 382.98 162.4 403.32 142.07 403.32 158.28 382.98 178.62"/><polyline class="cls-17" points="382.98 219.59 342.01 219.59 382.98 178.62 382.98 219.59"/><polyline class="cls-15" points="382.98 219.59 340.95 219.59 342.01 219.59 382.98 219.59"/><polyline class="cls-17" points="340.95 204.43 340.95 147.08 355.82 147.08 340.96 161.91 340.96 196.06 382.98 154.02 382.98 162.4 340.95 204.43"/><polyline class="cls-18" points="340.96 196.06 340.96 161.91 355.82 147.08 382.98 147.08 382.98 154.02 340.96 196.06"/><polyline class="cls-18" points="342.01 219.59 340.95 219.59 340.95 204.43 382.98 162.4 382.98 178.62 342.01 219.59"/><polyline class="cls-14" points="327 219.59 306.66 219.59 306.66 178.62 327 158.28 327 219.59"/><polyline class="cls-5" points="264.63 219.59 264.63 219.59 264.63 138.18 264.63 219.59"/><polyline class="cls-14" points="264.63 219.59 264.63 219.59 264.63 138.18 327 138.18 327 142.07 306.66 162.4 306.66 154.02 322.49 138.18 288.41 138.18 279.5 147.08 264.63 147.08 264.63 204.43 264.63 219.59"/><path class="cls-15" d="M331,223.56H260.66V134.21H331v89.35m-24.31-4H327V138.18H264.63v81.41h42"/><polyline class="cls-16" points="306.66 154.02 306.66 147.08 279.5 147.08 288.41 138.18 322.49 138.18 306.66 154.02"/><polyline class="cls-16" points="306.66 178.62 306.66 162.4 327 142.07 327 158.28 306.66 178.62"/><path class="cls-17" d="M306.66,219.59h-41l41-41v41m-42-15.16V147.08H279.5l-14.86,14.83v34.15l42-42v8.38l-42,42"/><polyline class="cls-15" points="306.66 219.59 264.63 219.59 265.69 219.59 306.66 219.59"/><polyline class="cls-18" points="264.64 196.06 264.64 161.91 279.5 147.08 306.66 147.08 306.66 154.02 264.64 196.06"/><polyline class="cls-18" points="265.69 219.59 264.63 219.59 264.63 204.43 306.66 162.4 306.66 178.62 265.69 219.59"/><polyline class="cls-19" points="248.41 233.35 246.49 233.35 246.49 160.69 209.01 160.69 209.01 233.35 209.01 158.77 248.41 158.77 248.41 233.35"/><path class="cls-15" d="M252.38,237.32H205V154.8h47.34v82.52m-5.89-4h1.92V158.77H209v74.58h37.48"/><polyline class="cls-20" points="246.49 233.35 209.01 233.35 209.01 160.69 246.49 160.69 246.49 233.35"/><polyline class="cls-21" points="240.72 150.41 214.77 150.41 214.77 147.08 240.72 147.08 240.72 150.41"/><polygon class="cls-22" points="369.72 205.61 195.45 205.61 195.45 200.65 369.72 200.65 369.72 205.61 369.72 205.61"/><polyline class="cls-6" points="284.38 65.07 129.98 108.92 438.79 108.92 284.38 65.07"/><path class="cls-6" d="M172.72,103H396L284.39,71.26,172.72,103m266.07,11.9H130a6,6,0,0,1-1.63-11.68L282.76,59.34a6,6,0,0,1,3.25,0l154.41,43.85a6,6,0,0,1-1.63,11.68"/><polygon class="cls-22" points="206.53 235.43 206.53 203.13 211.49 203.13 211.49 235.43 206.53 235.43 206.53 235.43"/><polygon class="cls-22" points="235.47 235.43 235.47 203.13 240.43 203.13 240.43 235.43 235.47 235.43 235.47 235.43"/><polygon class="cls-22" points="264.4 235.43 264.4 203.13 269.36 203.13 269.36 235.43 264.4 235.43 264.4 235.43"/><polygon class="cls-22" points="293.34 235.43 293.34 203.13 298.3 203.13 298.3 235.43 293.34 235.43 293.34 235.43"/><polygon class="cls-22" points="322.27 235.43 322.27 203.13 327.23 203.13 327.23 235.43 322.27 235.43 322.27 235.43"/><polygon class="cls-22" points="351.21 235.43 351.21 203.13 356.16 203.13 356.16 235.43 351.21 235.43 351.21 235.43"/><polygon class="cls-21" points="369.72 235.43 369.72 254.9 195.45 254.9 195.45 235.43 369.72 235.43 369.72 235.43"/><polygon class="cls-21" points="346 245.17 346 254.9 379.98 254.9 379.98 245.17 346 245.17 346 245.17"/><polyline class="cls-13" points="195.46 131.36 195.46 263.07 31.35 263.07 31.35 131.36 113.39 91.68 195.46 131.36"/><polyline class="cls-21" points="57.02 228.62 59.45 153.99 61.35 153.99 61.35 155.7 61.35 216.78 61.35 220.74 65.32 220.74 161.49 220.74 163.68 220.74 163.68 226.19 57.02 228.62"/><polyline class="cls-7" points="161.49 155.7 161.49 216.78 65.32 216.78 65.32 155.7 161.49 155.7"/><path class="cls-8" d="M165.46,151.73H61.35v69H165.46v-69m-4,4v61.08H65.32V155.7h96.17"/><polyline class="cls-9" points="113.13 155.7 65.32 203.54 65.32 172.09 81.74 155.7 113.13 155.7"/><polyline class="cls-9" points="135.78 155.7 74.73 216.78 65.32 216.78 65.32 211.25 120.9 155.7 135.78 155.7"/><path class="cls-23" d="M143.65,216.78H74.73l54.38-54.42h14.54v54.42m-78.33,0h0V162.36h9.75l-9.75,9.73v31.45l41.15-41.18h7.76L65.32,211.25v5.53"/><polyline class="cls-8" points="143.65 216.79 65.31 216.79 65.31 162.37 65.32 162.37 65.32 216.78 74.73 216.78 143.65 216.78 143.65 216.79"/><polyline class="cls-24" points="65.32 203.54 65.32 172.09 75.06 162.37 106.47 162.37 65.32 203.54"/><polyline class="cls-24" points="74.73 216.78 65.32 216.78 65.32 211.25 114.23 162.37 129.11 162.37 74.73 216.78"/><polyline class="cls-21" points="31.35 145.89 31.35 131.36 113.39 91.68 195.46 131.36 195.46 136.36 31.35 145.89"/><path class="cls-10" d="M242.49,198.39h-7.11a1,1,0,0,1,0-2h7.11a1,1,0,0,1,0,2Z"/><path class="cls-8" d="M243.24,197.64h-7.11a1,1,0,1,1,0-2h7.11a1,1,0,1,1,0,2Z"/><path class="cls-25" d="M203.67,141.3a5.93,5.93,0,0,1-2.58-.59L113.4,98.3,25.71,140.71A6,6,0,1,1,20.53,130l90.28-43.66a6,6,0,0,1,5.18,0L206.27,130a6,6,0,0,1-2.6,11.31Z"/><polygon class="cls-21" points="68.82 237.31 42.87 237.31 42.87 230.64 68.82 230.64 68.82 237.31 68.82 237.31"/><polygon class="cls-21" points="81.8 245.17 55.84 245.17 55.84 238.5 81.8 238.5 81.8 245.17 81.8 245.17"/><polygon class="cls-21" points="167.78 238.76 141.82 238.76 141.82 232.1 167.78 232.1 167.78 238.76 167.78 238.76"/><path class="cls-2" d="M481,242.68a19,19,0,0,0-6.23.48,14.82,14.82,0,0,0-13.22-11.77l-.49,0a20.43,20.43,0,0,0-38.24-6.46h0a25.56,25.56,0,0,0-32.41,30H497.16A19.07,19.07,0,0,0,481,242.68Z"/><path class="cls-3" d="M462.09,223.33a31.57,31.57,0,0,0-31.57,31.57h63.14a31.58,31.58,0,0,0-31.57-31.57Z"/><polygon class="cls-26" points="195.45 263.07 31.35 263.07 31.35 252.24 195.45 252.24 195.45 263.07 195.45 263.07"/><path class="cls-3" d="M495.69,235.69a19.21,19.21,0,0,0-19.21,19.21H514.9a19.21,19.21,0,0,0-19.21-19.21Z"/><path class="cls-3" d="M195.86,249.09A18.92,18.92,0,0,0,176.94,268h37.83a18.91,18.91,0,0,0-18.91-18.92Z"/><path class="cls-3" d="M235.47,262a12.06,12.06,0,0,0-12.06,12h24.11a12.06,12.06,0,0,0-12.05-12Z"/></g></g></svg>