<svg xmlns="http://www.w3.org/2000/svg" viewBox="0 0 93.94 93.94"><defs><style>.cls-1{fill:none;}.cls-2{fill:#f7f9fb;}</style></defs><g id="Layer_2" data-name="Layer 2"><g id="Layer_1-2" data-name="Layer 1"><polygon class="cls-1" points="93.94 93.94 0 93.94 0 0 93.94 0 93.94 93.94 93.94 93.94"/><path class="cls-2" d="M80.15,65.38H13.79V33.23H80.15V65.38ZM68.85,31.31H13.79a1.91,1.91,0,0,0-1.91,1.92V65.38a1.91,1.91,0,0,0,1.91,1.92H80.15a1.92,1.92,0,0,0,1.92-1.92V33.23a1.92,1.92,0,0,0-1.92-1.92Z"/><path class="cls-2" d="M70.43,36.55H52.64c-.27-.15-.55-.3-.83-.43a11.18,11.18,0,0,0-9.68,0c-.28.13-.55.28-.82.43H23.51a6.89,6.89,0,0,1-6.88,6.89V55.18a6.88,6.88,0,0,1,6.88,6.88h17.8c.27.16.54.3.82.44a11.2,11.2,0,0,0,9.68,0c.28-.14.56-.28.82-.44h17.8a6.88,6.88,0,0,1,6.88-6.88V43.44A6.89,6.89,0,0,1,70.43,36.55ZM38.79,60.14H25.22a8.83,8.83,0,0,0-6.67-6.67V45.14a8.81,8.81,0,0,0,6.67-6.67H38.79a15.62,15.62,0,0,0,0,21.67ZM51.17,55.6h0a5.35,5.35,0,0,1-2.45,1.55v2.12a.47.47,0,0,1-.48.48H45.69a.48.48,0,0,1-.48-.48V57.35A8.25,8.25,0,0,1,44,57.1a6.24,6.24,0,0,1-1.87-.87L41.8,56a.47.47,0,0,1-.17-.55l.93-2.6a.48.48,0,0,1,.3-.29.46.46,0,0,1,.41.05l.59.4a5.07,5.07,0,0,0,2.72.81h0a2.06,2.06,0,0,0,1.31-.39,1,1,0,0,0,.39-.83,1.06,1.06,0,0,0-.09-.45,1.25,1.25,0,0,0-.27-.39,4.55,4.55,0,0,0-1.58-.92,11.28,11.28,0,0,1-2.45-1.25,4.73,4.73,0,0,1-1.64-1.93,4.37,4.37,0,0,1-.35-1.75,4.57,4.57,0,0,1,1.22-3.13,5.17,5.17,0,0,1,2.25-1.37V39.34a.48.48,0,0,1,.47-.48h2.53a.48.48,0,0,1,.48.48v1.84a6.89,6.89,0,0,1,2.47.85l.4.24a.47.47,0,0,1,.21.58l-1,2.56a.47.47,0,0,1-.29.28.51.51,0,0,1-.4,0l-.56-.33a5,5,0,0,0-.89-.41,4.78,4.78,0,0,0-1.48-.23,1.64,1.64,0,0,0-1.16.35.81.81,0,0,0-.24.59A.7.7,0,0,0,46,46a1,1,0,0,0,.25.3,7.43,7.43,0,0,0,1.88,1,9.1,9.1,0,0,1,2.43,1.37,4.74,4.74,0,0,1,1.48,2.05,5,5,0,0,1,.29,1.73A4.82,4.82,0,0,1,51.17,55.6Zm24.22-2.13a8.84,8.84,0,0,0-6.67,6.67H55.16a15.62,15.62,0,0,0,0-21.67H68.72a8.83,8.83,0,0,0,6.67,6.67Z"/><polygon class="cls-2" points="13.13 32.38 80.71 32.38 80.71 65.38 80.15 66.17 52.35 66.68 54.58 61.32 69.47 60.89 70.75 57.91 74.32 54.85 76.36 53.83 76.62 44.3 72.03 42.08 69.22 37.57 25.13 37.66 23.86 39.36 20.88 43.02 17.73 44.04 17.64 53.83 20.79 55.36 23.6 58.79 24.79 61.06 53.73 59.75 56.02 65.91 13.79 66 12.54 64.38 13.13 32.38"/></g></g></svg>