<svg xmlns="http://www.w3.org/2000/svg" viewBox="0 0 35.3 35.38"><defs><style>.cls-1,.cls-2{fill:#fff;}.cls-2{fill-rule:evenodd;}</style></defs><g id="Layer_2" data-name="Layer 2"><g id="Layer_1-2" data-name="Layer 1"><path class="cls-1" d="M10,29.29l.59.35a14.22,14.22,0,1,0-4.86-4.82l.37.61L4.67,30.71,10,29.29ZM0,35.38l2.54-9.46a17.52,17.52,0,1,1,7,6.91L0,35.38Z"/><path class="cls-2" d="M24.32,19.91a2.92,2.92,0,0,0-2.5-.57c-.65.27-1.07,1.29-1.49,1.8a.62.62,0,0,1-.8.18,11.33,11.33,0,0,1-5.66-4.85.68.68,0,0,1,.09-.94,3.92,3.92,0,0,0,1-1.67,3.64,3.64,0,0,0-.46-2,4.68,4.68,0,0,0-1.45-2.19A2,2,0,0,0,10.9,10,4.42,4.42,0,0,0,9.37,13.5a5.1,5.1,0,0,0,.14,1.1,9.19,9.19,0,0,0,1.06,2.45,18.91,18.91,0,0,0,1.11,1.69,17.05,17.05,0,0,0,4.81,4.46,14,14,0,0,0,3,1.43,6.64,6.64,0,0,0,3.49.55,4.19,4.19,0,0,0,3.16-2.35,2,2,0,0,0,.15-1.2c-.18-.83-1.3-1.32-2-1.72Z"/></g></g></svg>